<?xml version="1.0" encoding="UTF-8"?><svg id="a" xmlns="http://www.w3.org/2000/svg" width="2483.0426" height="1111.7532" viewBox="0 0 2483.0426 1111.7532"><defs><style>.b,.c{fill:#ffd400;}.b,.c,.d{stroke-width:0px;}.c{fill-rule:evenodd;}.d{fill:#3c3c3c;}</style></defs><path class="d" d="m1023.0698,353.8765c69.2646,0,126.9346,57.0591,126.9346,130.5955s-57.6699,130.5957-126.9346,130.5957-126.9336-57.0593-126.9336-130.5957,57.6699-130.5955,126.9336-130.5955Zm0,215.4216c48.2109,0,75.3672-40.8875,75.3672-84.8262s-27.1562-84.8259-75.3672-84.8259-75.3672,40.8872-75.3672,84.8259,27.1572,84.8262,75.3672,84.8262Z"/><path class="d" d="m1320.2632,353.8765c50.042,0,74.4521,26.5461,74.4521,26.5461l-22.5801,34.7849s-18.6123-18.0027-48.8203-18.0027c-23.1904,0-35.3955,13.1206-35.3955,29.5977,0,13.7307,13.7314,22.5796,32.6494,31.1233,34.4795,15.5615,82.9951,32.6489,82.9951,78.7234,0,56.144-42.7188,78.4185-90.9287,78.4185-61.9414,0-91.5391-37.531-91.5391-37.531l26.8516-36.3105s28.0713,29.9028,61.3311,29.9028c17.3926,0,42.4131-5.1873,42.4131-31.7334,0-21.3594-25.9365-31.7336-59.5-46.6851-32.6494-14.6462-50.6523-37.2258-50.6523-64.0771,0-45.1594,39.0566-74.7568,78.7236-74.7568Z"/><path class="d" d="m1535.0688,358.4534v107.7107l94.2852-107.7107h57.6699l-106.1855,121.4417,121.1367,130.2905h-65.6025l-101.3037-110.1519v110.1519h-47.6006v-251.7322h47.6006Z"/><path class="d" d="m1791.6782,610.1856h-50.9561l100.6924-251.7322h43.9385l100.6934,251.7322h-50.957l-21.9688-58.8901h-99.4727l-21.9697,58.8901Zm71.7061-187.3499l-33.2598,86.657h66.5186l-33.2588-86.657Z"/><path class="d" d="m2136.4722,358.4534c49.4307,0,84.5205,25.6309,84.5205,75.6721,0,39.667-22.5791,66.5183-56.7539,75.6724l82.3848,100.3877h-60.7207l-74.7568-97.0312h-11.29v97.0312h-47.5996v-251.7322h84.2158Zm-36.6162,116.2544h21.9697c27.1562,0,49.126-10.9846,49.126-39.0566s-21.9697-39.0566-49.126-39.0566h-21.9697v78.1133Z"/><path class="d" d="m2363.7895,358.4534v251.7322h-47.6006v-251.7322h47.6006Z"/><path class="b" d="m731.1611,557.0164c-.4526-4.0338-6.3365-3.9846-6.7671.0515-4.0904,38.3449-16.9598,74.292-39.4157,107.1515-1.6699,2.4435-2.0817,5.5325-1.0314,8.2995,1.9807,5.2183,5.2012,13.8772,6.8305,19.208,2.7671,9.0536,15.3277,9.7692,19.2049,1.1326,19.471-43.3724,26.3378-89.8701,21.1789-135.8431Z"/><path class="b" d="m134.0703,523.4108c14.7398-47.7014,40.3365-92.0263,76.0786-131.744,33.1753-36.865,74.1183-68.8219,121.6916-94.9826,44.4642-24.4509,94.3572-43.2552,144.2847-54.3801l2.9909-.6664,2.5323-1.7247c12.7277-8.6676,28.0205-20.1762,45.7284-33.5022,55.3453-41.6504,131.1438-98.6926,203.7399-125.189l.0703-.0259c16.8794-6.2505,34.3838-9.2889,53.5134-9.2889,35.4615,0,71.5315,10.4373,109.7197,21.4877,30.2485,8.7528,48.4816,20.3239,80.3408,29.4819,7.8495,2.2564,14.1516,12.4855,13.7987,26.1188-.3455,13.3477-4.5971,27.429-14.7298,42.7281-.4093.4443-4.0837,4.0292-19.9913,8.9171-11.9047,3.658-26.0299,6.7163-39.6904,9.674-14.2283,3.0807-60.2737,8.9187-93.3729,34.9951-18.3724,14.4743-36.757,34.6351-53.1663,58.3026-34.9691,50.4368-57.0097,110.8613-58.9779,161.6798-.849,14.6269-.6612,29.5115.5579,44.242l.0177.1977c2.6466,27.7795-.0616,55.5707-8.0499,82.6016-7.7092,26.0858-20.0698,50.6618-36.7389,73.0458-19.8188,26.6138-44.7484,48.7573-72.9742,65.2214-7.7362,4.5125-16.6155-3.7203-12.6473-11.7494,22.3188-45.1583,41.6257-89.3675,29.7889-133.8281l-2.773-10.4172-10.6965-1.3366c-11.938-1.4921-47.2443-2.2488-59.0641-2.2488-100.2095,0-190.0717,53.0969-240.381,142.0341-35.0301,61.9263-44.8116,131.847-29.4922,198.0215,1.9901,8.5967-8.3069,14.6106-14.8271,8.6648l-1.5703-1.432c-21.5205-19.6408-40.8887-41.6295-57.5674-65.3554-16.7845-23.8761-30.961-49.6787-42.1363-76.6912-11.3645-27.4689-19.7186-56.4203-24.8305-86.0507l-.0092-.0525c-10.2784-58.4157-7.3067-114.518,8.8325-166.7485ZM878.2268,126.2162c-6.1508,12.5041,8.3007,22.7209,18.0375,12.7507.1821-.1865.3417-.4121.4568-.646,6.1534-12.5054-8.3015-22.7237-18.0376-12.7507-.1821.1865-.3416.4121-.4566.646Z"/><path class="c" d="m287.1159,771.552c5.9178-19.0533,14.0436-37.4455,24.1128-54.6591,3.6533-6.2455,12.7669-5.8012,15.913.7146,29.8376,61.7952,79.377,112.2415,140.2605,143.5224,153.0583,79.0557,322.0792,18.388,408.805-108.099,1.0467-1.5266,2.097-3.1964,3.1492-4.9966,12.0494-20.6152,43.1885-4.9332,33.6647,16.9636-.376.8646-.7577,1.7247-1.1452,2.58-2.3945,5.2861-4.1896,10.8278-6.4606,16.1764-22.6311,54.3631-57.2647,103.6882-100.2776,143.8781,0,0,.0006.0036-.0029.0042-112.0534,110.4749-318.977,148.122-458.3981,73.1976-27.2871-14.664-48.1274-39.1413-57.8036-68.569-17.0756-51.9307-18.052-110.7721-1.8173-160.7131Z"/><path class="b" d="m393.0736,649.7439c-8.0873,39.2781-7.2916,80.8451,1.8921,120.2639,1.4873,6.3839-6.6128,10.4597-10.8866,5.4897l-.171-.1989c-20.3358-23.6692-36.7607-50.2391-48.819-78.9712l-1.46-3.559c-1.2595-3.0703-.7095-6.57,1.382-9.1466,12.8695-15.8544,27.5519-30.2652,43.7869-42.8356,6.5799-5.0947,15.9537.8069,14.2755,8.9577Z"/></svg>