<svg xmlns="http://www.w3.org/2000/svg" viewBox="0 0 46 46">
  <defs>
    <style>
      .cls-1 {
        fill: #393939;
        opacity: 0;
      }

      .cls-2 {
        fill: #fff;
      }

      .cls-3 {
        fill: none;
        stroke: #ffd622;
        stroke-linecap: square;
        stroke-width: 2.114px;
        stroke-dasharray: 2.114 4.228;
      }
    </style>
  </defs>
  <g id="world_w_r_nobg" transform="translate(-109.324 -405.255)">
    <g id="g1239-7-8" transform="translate(109.324 405.255)">
      <circle id="path1018-7-7-8-0-6" class="cls-1" cx="23" cy="23" r="23" transform="translate(0 0)"/>
      <path id="path990-5-8-5-0-9" class="cls-2" d="M145.954,44.488a20.758,20.758,0,0,0-12.988,6.879l.488-.323,1.563-.06.962-1.075,1.684-1.731,1.624-1.075,2.946-.955,1.744-1.134h2.345l-.361-.478Zm8.7.716.1.681s-.638.253-.723.422-.468,1.182-.468,1.182l-.468.549-1.233.76-.85.844-.34.127-.213-.38-.34-.3.935.211.17-.253-.085-.38-1.148-.338-.978-.084-1.063.464-1.361,1.14-.893.3-.255.8.3.38.68-.338.17.633.128.338.638.042.51-1.055-.128-.422.213-.38.638-.38.043-.338.468.042-.043.211-.723.507.213.591.255.127,1.191-.169-.51.3-.723.127-.043.549-.425.084-.043.464-.468.169-.978.211-.3-.253-.468-.042-.17-.211.3-.38v-.211l-.425.127-.128.844-.808.211-.553.464-1.063.507h-.935l-.085.253.51.718-.468.8-1.446-.3-.3.253-.68,1.224v.591l.723.422,1.276-.253.6-.633.3-.464.808-.211v-.338l.34-.127.553.253.735-.4.2.149.042.507.808.591.425.38-.213.633.3.169.255-.591-.085-.38.51.169v-.3l-1.19-.844-.213-.507.043-.3,1.7,1.393.085.76.468.507.765-.042-.3-.76.978-.127.085.844.553.549.85.042,1.1-.109c.01.326.02.642.029.942l-.536.983-.935-.169-.468.253-1.616-.591-1.063.084-.425.718-2.764-1.435.383-.549-.043-.591-2.342-.039-.018-.025-.067.023-.124,0,.009.042-.987.338-1.148-.084L138.7,59.247v.3l-.808.591-.276.084-1.828,2.005.17.507-.17,1.435-.51.76,2.551,4.1,3.954-.253.68.8,1.191.464-.213,1.6,1.361,2.027.383,1.562-.6,1.689,1.063,1.562,1.446,2.871,1.063.169,2-.3,1.616-1.267.17-.718,1.063-.253-.213-1.478,1.828-1.351-.043-1.478-.3-1.6,2.253-2.871,1.148-1.562.68-2.026-.213-.211-1.956.844-.553-.422.042-.169-1.616-1.224L153.394,64l-1.35-2.55.508-.339,1.139,1.5,1.446,2.364.6,1.393.6.084,2-1.182,1.786-2.2.127-.887-1.063-.675-.808.464-.6.042-1.488-1.689.6-.507L158.156,61h.553l.425-.422.468.38,2.083-.3,1.488,1.478.468-.464.68,1.773,1.063,2.153.383.338.3-1.14-.34-1.9.51-1.435V60.408L167,59.69l.935,1.435.51.127.468,2.027s.288.858.364,1.2A20.59,20.59,0,0,0,154.653,45.2Zm-10.2.108-1.984,1.194-1.563.6L139.227,48.3v.6l1.684-.716,1.443-.239,1.2-.119,1.563-.836,1.8-.836-.12-.537-.782-.179Zm-1.774,3.15-.271.075.206.19-.386.288.481.239.782-.239V48.6l-.73.056Zm.992,2.372a1.632,1.632,0,0,0-.2.017l-.406.313-.06.552.03.194.225.134-.015.284-.12.075-.271-.075-.12.448-.376.179-.075.284h.451l.271-.09.752.045.271-.493-.18-.194-.03-.328-.135-.134.03-.343-.225-.075.466-.388a.827.827,0,0,0-.045-.343c-.03-.052-.139-.063-.24-.062Zm-.992.883-.436.075-.2.194-.12.254-.451.373.241.149.706-.149.21-.463.241-.209ZM155.8,54.286l.191.127-.128.317-.213.317.638.591.723.992.213.8-.468.253-.893-.338v-.612l.106-.338-.234-.042-1.063-1.2.468-.823Zm-3.3.338.042.338-.149.38.723.38.489.253.043.38-.51.253-.723-.063-.893-.274-.6.38-.787-.021-.234-.486.234-.654.34-.3.276-.359.6.148.021.485.6-.148.149-.148-.383-.253.489-.253Zm-24.314,6.734a20.015,20.015,0,0,0,2.695,14.163l-.107-.295.255-.422-.255-2.575.425-1.858L128.649,66.4l-.213-2.322Zm37.919,3.778.213,1.309.213-.38-.213-.929Zm2.594.042a6.99,6.99,0,0,1,.519,1.1q.023-.338.034-.678Zm-10.969,9.415-.6,1.013-1.19.718-.3,1.013-.383.887.425.76.808-.38,1.573-2.829Z" transform="translate(-125.57 -42.106)"/>
    </g>
    <rect id="rect848-7-2-8-7-5-1-9-3-1-3-06-21-5-8-6-9-9-1" class="cls-3" width="24.82" height="16.871" transform="translate(119.915 419.82)"/>
  </g>
</svg>
