<svg xmlns="http://www.w3.org/2000/svg" width="46" height="46" viewBox="0 0 46 46">
  <g id="worldmap_g_s_nobg" transform="translate(-31.282 -362.492)">
    <rect id="rect1704-6-2-4-0-7-1-36-9-8-6-2-5" width="46" height="46" transform="translate(31.282 362.492)" fill="rgba(156,156,156,0)"/>
    <path id="path1051-9-3-9-5-6-5-6" d="M55.592,386.8Z" transform="translate(-1.311 -1.311)" fill="#fff" fill-rule="evenodd"/>
    <g id="g2199-4-7" transform="translate(32.851 373.929)">
      <g id="g1322-9-2-2-7-3-2-4-0" transform="translate(0 0)">
        <path id="path1049-8-5-0-8-4-6-3-8-2" d="M202.342,89.751l-1.577.263-.044.175-.365.015v.175l-.613-.175-.2.015-.365.029v.409c0,.073.292.263.292.263l-.569-.131-.453.073-.73-.029-.35.234-.19-.088-.336-.058-.058.248-.321.219-.1.118-.232-.074-.117.1-.175-.1-.2-.248.453.088.277.029.131-.146-.117-.131-.584-.19-.321-.058-.321-.058-.321-.131h-.35l-.423.1-.292.146-.423.365-.161.277-.263.2-.482.19-.058.365.146.219.19.131h.219l.175-.19.307.365.161.19.292-.029.073-.277v-.1l.19-.131.029-.19-.234-.088.058-.277.234-.19.146-.234.307-.058v.19l-.307.19-.015.511.365.058.569-.117.029.088-.117.073-.38-.015-.2.131-.058.175-.073.365.029,0-.182.135-.255-.051-.372.131-.2-.109-.277.109-.029-.146-.109-.131.073-.153-.088-.161-.212.182.022.409-.394.124-.423.387-.182.2-.256.153-.263-.015-.161.088.2.19.263.343-.095.3-.869-.051-.146.1.044.387-.146.328.11.11-.007.212s.2.007.234.007.226.2.226.2l.168-.139.4-.044.168-.394.153-.219.336-.226-.022-.175.146-.08.336.066.336-.234.168.058.3.38.438.27.153.19-.066.117-.161.022-.248.007-.066.088.2.117.219.022-.015-.109.088-.073.066.007.139-.241-.095-.073.044-.1.219.088v-.088l-.365-.2-.35-.248-.248-.38.175-.1.277.219.6.438v.175l.423.672.146.044.2-.277-.117-.146-.073-.234.161-.044.248-.029.1.306.394.409.423-.029.613.058-.146.876-.35.131.026.1-.209-.028-1.342-.372h-.31l.083.434h-.227l-.5-.289-.186-.165-.5-.186-.186-.537-1.2.062-.413.268-.558-.021-.64.619-.021.413-.434.289-.7,1.156-.021,1.156.5.723.062.454.826.516.97-.062.826-.351.33.392h.351l.248.227-.165.805.847,1.879-.434.888.475.909.289,1.239.227.764h1.012l.97-.867.31-.743.248-.083.062-.764.764-.723.021-1.156-.124-.805,1.177-1.425.6-1.363-.681.1-.31.145-.289-.33-.537-.619-.124-.454-.516-.847-.4-1.056.125.137.482.482.5.92.438.657.146.686.175-.029,1.139-.5.8-.6.263-.54-.467-.35-.175-.219-.365.234h-.263l-.073-.292-.2-.073-.38-.555.307-.088.292.394.555.2.219-.117.117.248.628.1.745-.044.628.759.336.161.117.409.657,1.533.19.117.2-.234.117-.54v-.394l.92-.964.628-.175.555.628.015.321.1.1.307-.073.19.6.117.584.146.234.292.6.38.482.161.088-.175-.715-.35-.307-.248-.467.015-.686.54.423.175.511.715-.569-.073-.511-.248-.321L207.7,99.2l-.026-.091.26-.3.234.029.058.526.234.058.175-.526.5-.146.672-1.11-.2-.73-.555-.35.2-.234v-.263l-.5-.321.234-.2v.146l.409-.029.438.438.234.526h.292l.058-.38-.438-.526v-.35l.409-.321.263-.964-.584-.73-.905-.38.35-1.577-1.314-.934-1.372-.146-.584.263-.534-.119-.021-.086-.672-.2-.219.131-.642-.058-.7-.146-.2-.146Zm-6.322,4.73.292.088.058.2.146.058.307-.117.642.336.2.248-.161.19-.38-.044-.438-.19-.35.044-.161.131-.394-.117-.088-.277.19-.35Zm2.613.073.146.175-.015.146.394.248.073.409.175.19.131.423-.219.088-.336-.161-.219-.058.058-.467-.336-.423-.1-.307Zm.745,10.089-.438.467-.409.263-.117.234.175.409-.292.38.146.526h.35l.467-.993.292-.847Z" transform="translate(-171.376 -89.021)" fill="#393939" fill-rule="evenodd"/>
        <path id="path1051-9-7-5-6-1-9-8-1-2" d="M196.844,68.553Z" transform="translate(-171.787 -65.982)" fill="#393939" fill-rule="evenodd"/>
        <path id="path1061-0-3-3-7-2-9-4-3-1" d="M192.119,70.715l.044-.27-.2-.073-.095-.175-.124-.037-.044-.19-.175-.066.175-.234-.044-.044-.219.007.066-.11h-.234l-.037.124h-.1l.029.321.124.051v.117l.117.022.058.219-.124-.015-.095.256.153.124-.19.168.029.036.372-.168Z" transform="translate(-171.48 -66.034)" fill="#393939" fill-rule="evenodd"/>
        <path id="path1063-2-0-5-2-2-0-3-3-4" d="M191.11,70.526l-.051-.219.11-.1-.073-.124-.314.044v.088l-.153.029-.029.139.146.044-.19.19.08.117Z" transform="translate(-171.448 -66.064)" fill="#393939" fill-rule="evenodd"/>
        <path id="path1065-2-2-3-1-9-1-0-2-2" d="M187.912,88.979,186.6,89.1l-1.08.117-1.022.467.088.175.993.058.321.555-.438.73.146.759.234.146.467-.058.672-.73.555-.146.818-.234.672-.2-.35-.146.409-.409.5-.321v-.294l.263-.188.453-.139.109-.036-.453-.066-.161.051h-.433l-.158-.146Zm1.788,2.183-.088.1-.219-.022-.044.058h-.1l-.161.044-.036-.1-.124-.022-.117.124.131.022.051.08-.007.073.117.117.263.066.431-.175.139-.1-.051-.139Z" transform="translate(-171.122 -88.979)" fill="#393939" fill-rule="evenodd"/>
        <path id="path1071-9-4-9-2-0-6-4-0-2" d="M198.357,67.453l-.146-.234.263-.38.642-.088.058-.175-.934.175-.234.175-.175.409.292.146Z" transform="translate(-171.841 -65.875)" fill="#393939" fill-rule="evenodd"/>
        <path id="path1075-4-2-0-6-3-4-5-5-2" d="M204.984,78.367l.175.467-.175.2-.117-.088-.029-.438Z" transform="translate(-172.218 -66.511)" fill="#393939" fill-rule="evenodd"/>
        <path id="path1079-7-6-1-2-2-0-4-9-3" d="M174.01,90.584l-1.752.35-.117.38-.555.117-.093.308-.462.071-.672.38.263.321.759.175.934-.38.847-.146.642.5-.146.642.409.876-.759,1.431.088.876.263.146.2,1.2.438.73-.058-.35-.292-.847.117-.35.292.642.613,1.256-.058.175,1.168.818.35-.2.409.467.672.35.905.847.35-.234.257.24a3.224,3.224,0,0,0-.082.578c0,.263-.38.555-.38.555l-.175,1.051.876,1.518.847.7.263,1.869-.029,1.285.2,1.956.73,1.11.7.2.38-.263-.584-.35.117-.818-.35-.029v-.292l.321-.117-.058-.38-.146-.234.234.058.672-.584.058-.409.292-.029.584-1.11.146-.7.993-.409.234-.672.058-.934.555-.672-.029-.613-.526-.467-.526-.088-.934-.409-.555-1.051-.7-.117-.818-.818-.7.2-.438-.263-.672-.029-.438.511-.263-.161-.292.088-.35-.058-.234-.321.175-.73h-.292l-.467-.146.117-.5.292-.467-.175-.088-.613.2.058.234-.088.234-.7-.088L176.2,98.7l.146-.584.058-.35.7-.263.467.117.38-.321.555.029-.029.642.263.321.146-.292v-.934l.934-.584.292-.759.759-.292.146-.321.788.029.555-.467-.35-.555-.2-.146.175-.058h.818l.759-.321v-.117l-.35-.555-.263-.672-.292.467-.35-.146.029-.263-.234-.38-.263.029L181.6,91.9l-.526.555.2.321-.613.409-.263.38-.2-.438-.38-.234-.555-.5.477-.527.75-.2h.73l-.058-.35.555-.2-.175-.38-.73.029-.7.263h-.905l-.993.117-.934-.38L176.4,90.7l-1.372.058Z" transform="translate(-170.36 -89.066)" fill="#393939" fill-rule="evenodd"/>
        <path id="path1085-6-8-3-4-4-6-8-3-6" d="M182.184,68.385l.613.088.38.467.263-.175.321-.234-.146-.234.234-.175.2.2.35-.2-.555-.321.058-.263-.642-.467h-1.2l-.409.2.234.584.584-.38.467.146.175.35-.35.292-.5-.029Z" transform="translate(-170.969 -65.902)" fill="#393939" fill-rule="evenodd"/>
        <path id="path1087-9-2-0-0-6-9-8-0-9" d="M207.522,79.17l.613.292.438.467.467.642V81.1l-.263.029-.555-.7-.409-.788Z" transform="translate(-172.363 -66.554)" fill="#393939" fill-rule="evenodd"/>
        <path id="path1089-5-2-9-3-0-9-8-7-0" d="M209.711,80.555l-.058-.847h.175l.73-.555.263-.292.438.234-.263.35.058.321L211,80.2l-.2.38Z" transform="translate(-172.478 -66.537)" fill="#393939" fill-rule="evenodd"/>
        <path id="path1091-2-9-6-0-7-9-8-3-4" d="M209.274,81.238l.555.088.73.292h.847l.7-.029-.2.175h-1.168l-1.168-.234-.438-.117Z" transform="translate(-172.45 -66.666)" fill="#393939" fill-rule="evenodd"/>
        <path id="path1093-2-4-5-7-1-0-6-9-2" d="M212.023,74.134l-.088-.35.438-.35.438.029L212.87,73l-.029-.526-.292-.146.088-.38.555.234.175-.292.058.263-.35.234-.088.175.292.584-.029.467-.788.263-.146.35Z" transform="translate(-172.601 -66.161)" fill="#393939" fill-rule="evenodd"/>
        <path id="path1095-9-9-2-2-0-8-1-2-1" d="M210.887,75.937l.146-.409h.146v.467Z" transform="translate(-172.545 -66.358)" fill="#393939" fill-rule="evenodd"/>
        <path id="path1097-1-7-7-2-4-1-2-1-7" d="M211.257,76.67l.321.058-.117.672.029.292-.234-.409Z" transform="translate(-172.564 -66.419)" fill="#393939" fill-rule="evenodd"/>
        <path id="path1099-1-2-0-1-6-6-4-2-7" d="M212.811,80.687l.321.146v.321l.234.117.409-.35,1.139.555.234.467.35.467h-.35l-.321-.35-.292.2-.409.029-.175-.2h-.38l-.088-.146.234-.117-.2-.38-.642-.2-.321-.409Z" transform="translate(-172.634 -66.636)" fill="#393939" fill-rule="evenodd"/>
        <path id="path1101-1-5-0-0-1-6-6-5-9" d="M211.868,80.892l-.175-.38.234-.2-.08-.073-.263.131-.1-.022-.095-.088-.08.058-.058.263-.029.036-.022.131.088.073-.015.256.131.066.044-.2-.022-.285.109-.044v.131l.08.182.175.2.088-.1Z" transform="translate(-172.561 -66.611)" fill="#393939" fill-rule="evenodd"/>
        <path id="path1103-3-0-1-8-5-1-5-1-0" d="M212.011,78.561l.19-.139-.029-.117.022-.131.051.183.131.423-.022.139-.073-.139-.1.073.051.109-.022.11L212,78.9v-.212l-.1-.036-.051.08-.058-.044-.088.109-.007.095-.058.029-.066-.037.095-.088.036-.183.2-.095.051.051Z" transform="translate(-172.581 -66.5)" fill="#393939" fill-rule="evenodd"/>
        <path id="path1105-3-6-3-3-8-3-1-7-6" d="M185.518,65.953l-1.022-.117-1.256.117-1.139.263.263.234-.088.146h-.5l-.029.2.2.2,1.343-.117-.131-.139h-.431l-.212.058-.241-.073.19-.1.5.022.423.029.19-.088.124-.109.73-.241.759-.212Z" transform="translate(-170.974 -65.835)" fill="#393939" fill-rule="evenodd"/>
        <path id="path1107-9-9-5-4-5-3-2-9-8" d="M182.155,66.516l-.058-.109-.234-.022-.066.095.1.08Z" transform="translate(-170.976 -65.865)" fill="#393939" fill-rule="evenodd"/>
        <path id="path1109-0-0-4-9-9-5-2-3-3" d="M181.579,66.49l.088-.131-.343-.051-.168.051-.015.109.292-.007Z" transform="translate(-170.941 -65.861)" fill="#393939" fill-rule="evenodd"/>
        <path id="path1111-6-8-3-8-2-3-9-5-3" d="M181.78,66.793l-.241.029-.058.095.248.022.1-.095Z" transform="translate(-170.959 -65.887)" fill="#393939" fill-rule="evenodd"/>
        <path id="path1113-9-5-0-4-7-1-4-8-0" d="M181.8,67.054c-.029,0-.343-.029-.343-.029l-.212.131-.117.168-.153.095-.139.088-.073.131L181,67.7l.277-.124-.022-.256.19-.124h.183Z" transform="translate(-170.921 -65.899)" fill="#393939" fill-rule="evenodd"/>
        <path id="path1115-5-3-6-0-7-8-9-0-1" d="M181.038,67.265l.124-.226-.124-.022-.387.058.058.124-.066.022-.095-.044h-.088l-.007.066.124.08.022.124.131-.007.066-.08.131-.007Z" transform="translate(-170.904 -65.899)" fill="#393939" fill-rule="evenodd"/>
        <path id="path1117-9-5-6-5-1-0-0-4-1" d="M180.065,67.577l-.219-.117.095-.088.015-.11.277-.175h-.248l-.256.073-.117.2-.073.015.058-.153-.139-.058-.058.044-.256-.051-.212-.146-.664-.029-.058.109-.5.212.117.168.38-.051.146-.182.292-.044-.263.168.058.051.182-.007-.314.058.022.073.591-.022.058.044-.591.015-.117.066.022.066h.234l.029.109.321-.022.336-.095.219-.007.109.088.321-.015.029-.117h.153Z" transform="translate(-170.756 -65.897)" fill="#393939" fill-rule="evenodd"/>
        <path id="path1119-2-9-6-9-4-9-1-7-7" d="M179.63,68.068l-.19-.248-.35.044V68.1Z" transform="translate(-170.83 -65.942)" fill="#393939" fill-rule="evenodd"/>
        <path id="path1121-3-3-5-9-1-4-3-3-0" d="M181.055,66.873l.285-.022.124-.168-.438.029-.131-.073.066-.11-.139-.015-.051.117-.007.183Z" transform="translate(-170.921 -65.872)" fill="#393939" fill-rule="evenodd"/>
        <path id="path1123-8-0-7-8-4-5-2-5-5" d="M180.562,66.846l-.277-.095.058-.117-.2.036-.058.117-.153.007-.11-.131-.117-.109-.825.146-.073.051.35.044.219.153h.394l.686-.066Z" transform="translate(-170.815 -65.874)" fill="#393939" fill-rule="evenodd"/>
        <path id="path1125-9-2-0-3-8-6-3-0-2" d="M180.442,66.523l.153-.073.029-.066-.131-.007-.285.022-.066.066-.182.007v.073l.226.036Z" transform="translate(-170.877 -65.864)" fill="#393939" fill-rule="evenodd"/>
        <path id="path1127-0-0-2-7-0-8-4-8-0" d="M193.1,66.315l.243.134.124-.062.046.062-.026.1.217.108.072-.015.036-.1.165-.191.16.139.057.072.212-.031.046-.015.005-.057-.263-.036-.145-.108h.2l.057.026.227-.041.155-.088-.413-.015-.294-.015-.263.026-.176.021-.026.077-.093-.072-.139.052-.15-.046Z" transform="translate(-171.585 -65.854)" fill="#393939" fill-rule="evenodd"/>
        <path id="path1131-1-8-0-9-6-9-0-3-9" d="M196.54,66.179l.19.058.212-.051.321.037.234-.073.277.015.307-.007.168-.022-.409-.022h-.263l.029-.037.044-.11-.263.146a1.853,1.853,0,0,1-.365.036s-.226-.022-.263-.022-.241-.044-.241-.044l-.015.088Z" transform="translate(-171.769 -65.842)" fill="#393939" fill-rule="evenodd"/>
      </g>
      <path id="path1900-0-8-7-4-7" d="M128.7,726.811l-.478,1.106-.657-.418.239-.478-.777-.179-.359.538-.448-.12-.388.269-.418.3-.239.508s-1.046.149-1.225.359l-.149.9-.119.777-.12.359.269.3s1.016-.329,1.135-.329,1.315-.149,1.315-.149l.568.448.09.388.3.269.986.03.807-.807.418-.687.149-1.076-.568-.986v-.448l-.239-.388Zm-1.014,5.286a3.554,3.554,0,0,0-.42.032l-.179.329.209.269s.388-.448.508-.568c.045-.045-.02-.06-.118-.062Z" transform="translate(-87.137 -710.912)" fill="#393939"/>
    </g>
    <rect id="rect848-7-2-8-7-5-1-9-3-1-3-06-21-1-6-3-3-3-1-5-6" width="25.961" height="15.961" stroke-dasharray="2.114 4.228" transform="translate(41.301 377.511)" stroke="#ffd622" stroke-linecap="square" stroke-width="2.114" fill="none"/>
  </g>
</svg>
